<?xml version="1.0" encoding="UTF-8"?>
<!DOCTYPE svg PUBLIC "-//W3C//DTD SVG 1.0//EN" "http://www.w3.org/TR/2001/REC-SVG-20010904/DTD/svg10.dtd">
<!-- Creator: CorelDRAW X7 -->
<svg xmlns="http://www.w3.org/2000/svg" xml:space="preserve" width="380px" height="380px" version="1.0" style="shape-rendering:geometricPrecision; text-rendering:geometricPrecision; image-rendering:optimizeQuality; fill-rule:evenodd; clip-rule:evenodd"
viewBox="0 0 380 380"
 xmlns:xlink="http://www.w3.org/1999/xlink">
 <defs>
  <style type="text/css">
   <![CDATA[
    .fil0 {fill:none}
    .fil1 {fill:#1990CF}
   ]]>
  </style>
 </defs>
 <g id="Layer_x0020_1">
  <metadata id="CorelCorpID_0Corel-Layer"/>
  <rect class="fil0" width="380" height="380"/>
  <g id="telegram.svg">
   <g id="XMLID_496_">
    <path id="XMLID_497_" class="fil1" d="M27 184l78 29 30 97c2,6 10,8 15,4l43 -35c5,-4 11,-4 16,0l78 56c5,4 13,1 14,-5l58 -276c1,-7 -6,-13 -12,-11l-320 124c-8,3 -8,14 0,17zm103 14l152 -94c3,-2 6,2 4,4l-126 117c-4,4 -7,9 -8,15l-4 32c-1,4 -7,5 -8,1l-17 -58c-1,-7 1,-14 7,-17z"/>
   </g>
   <g>
   </g>
   <g>
   </g>
   <g>
   </g>
   <g>
   </g>
   <g>
   </g>
   <g>
   </g>
   <g>
   </g>
   <g>
   </g>
   <g>
   </g>
   <g>
   </g>
   <g>
   </g>
   <g>
   </g>
   <g>
   </g>
   <g>
   </g>
   <g>
   </g>
  </g>
 </g>
</svg>
