<?xml version="1.0" encoding="UTF-8"?>
<!DOCTYPE svg PUBLIC "-//W3C//DTD SVG 1.0//EN" "http://www.w3.org/TR/2001/REC-SVG-20010904/DTD/svg10.dtd">
<!-- Creator: CorelDRAW X7 -->
<svg xmlns="http://www.w3.org/2000/svg" xml:space="preserve" width="550px" height="120px" version="1.0" style="shape-rendering:geometricPrecision; text-rendering:geometricPrecision; image-rendering:optimizeQuality; fill-rule:evenodd; clip-rule:evenodd"
viewBox="0 0 550 120"
 xmlns:xlink="http://www.w3.org/1999/xlink">
 <defs>
  <style type="text/css">
   <![CDATA[
    .fil0 {fill:black;fill-rule:nonzero}
    .fil1 {fill:#ECB602;fill-rule:nonzero}
   ]]>
  </style>
 </defs>
 <g id="Layer_x0020_1">
  <metadata id="CorelCorpID_0Corel-Layer"/>
  <path class="fil0" d="M37 89c2,2 3,4 4,6 1,2 2,4 2,7 0,2 0,4 -1,6 -1,2 -2,4 -4,6 -1,1 -3,2 -5,3 -2,1 -4,1 -6,1l-26 0 0 -22 0 -1 0 -33 24 0c2,0 4,0 6,1 2,1 4,2 5,4 2,1 3,3 4,5 0,2 1,4 1,6 0,2 0,4 -1,6 -1,2 -2,4 -3,5zm-10 20c1,0 1,0 2,0 1,-1 2,-1 3,-2 1,0 1,-1 2,-2 0,-1 0,-2 0,-3 0,-1 0,-2 0,-3 -1,-1 -1,-2 -2,-2 -1,-1 -2,-2 -3,-2 -1,0 -2,-1 -3,-1l-8 0 0 -9 7 0c1,0 2,0 3,0 0,0 1,-1 2,-2 1,0 1,-1 2,-2 0,-1 0,-2 0,-3 0,-1 0,-2 0,-3 -1,-1 -1,-2 -2,-2 -1,-1 -2,-2 -2,-2 -1,0 -2,-1 -3,-1l-15 0 0 25 0 1 0 13 17 0z"/>
  <polygon id="1" class="fil0" points="74,62 98,118 88,118 83,106 83,106 71,78 63,97 63,97 54,118 45,118 69,62 "/>
  <path id="2" class="fil0" d="M148 100l-9 0 0 -38 9 0 0 38zm-9 0l0 14 -26 -32 0 36 -9 0 0 -56 5 0 30 38z"/>
  <polygon id="3" class="fil0" points="182,62 207,118 197,118 192,106 192,106 180,78 172,97 172,97 163,118 153,118 178,62 "/>
  <path id="4" class="fil0" d="M257 100l-9 0 0 -38 9 0 0 38zm-9 0l0 14 -26 -32 0 36 -9 0 0 -56 4 0 31 38z"/>
  <polygon id="5" class="fil0" points="291,62 315,118 306,118 300,106 300,106 288,78 280,97 280,97 271,118 262,118 286,62 "/>
  <path id="6" class="fil1" d="M337 62c4,0 8,0 11,2 4,1 7,3 9,6 3,3 5,6 6,9 2,3 3,7 3,11 0,4 -1,7 -2,10 -2,4 -4,7 -6,9 -2,3 -5,5 -8,6 -3,2 -7,3 -10,3l0 -9c2,0 4,-1 6,-2 3,-1 4,-2 6,-4 1,-2 3,-4 3,-6 1,-2 2,-5 2,-7 0,-3 -1,-5 -2,-8 -1,-2 -2,-4 -4,-6 -2,-1 -4,-3 -6,-4 -3,-1 -5,-1 -8,-1l-9 0 0 38 -8 0 0 -47 17 0z"/>
  <path id="7" class="fil1" d="M415 79c0,3 0,5 -1,7 0,1 -2,3 -3,5 -1,1 -3,3 -5,4 -1,1 -3,1 -5,2l14 21 -10 0 -15 -21 -9 0 0 21 -9 0 0 -44 9 0 0 14 17 0c1,0 2,0 3,-1 1,0 2,-1 3,-2 1,0 1,-1 2,-2 0,-1 1,-2 1,-4 0,-1 -1,-2 -1,-3 -1,-1 -1,-2 -2,-3 -1,-1 -2,-1 -3,-2 -1,0 -2,0 -3,0l-13 -1 0 -8 13 0c2,0 5,0 7,1 2,1 4,2 5,4 2,1 3,3 4,5 1,3 1,5 1,7z"/>
  <path id="8" class="fil1" d="M451 61c4,0 7,1 11,2 3,2 6,4 9,6 3,3 5,6 6,10 2,3 3,7 3,11 0,4 -1,7 -2,10 -2,4 -3,6 -6,9 -2,2 -5,5 -8,6 -3,2 -6,3 -9,4l0 -9c2,-1 4,-1 6,-3 2,-1 4,-2 5,-4 2,-2 3,-4 4,-6 1,-2 1,-5 1,-7 0,-3 0,-6 -2,-8 -1,-3 -2,-5 -4,-7 -2,-1 -4,-3 -6,-4 -3,-1 -6,-2 -8,-2 -3,0 -6,1 -8,2 -3,1 -5,3 -7,4 -2,2 -3,4 -4,7 -1,2 -2,5 -2,8 0,2 1,5 2,7 0,2 1,4 3,6 1,2 3,3 5,4 2,1 4,2 6,3l0 8c-3,0 -6,-1 -9,-3 -3,-2 -6,-4 -8,-6 -2,-3 -4,-6 -5,-9 -2,-3 -2,-6 -2,-10 0,-4 1,-8 2,-11 2,-4 4,-7 6,-10 3,-2 6,-4 9,-6 4,-1 8,-2 12,-2z"/>
  <polygon id="9" class="fil1" points="493,62 493,118 484,118 484,62 "/>
  <path id="10" class="fil1" d="M521 62c4,0 7,0 11,2 3,1 6,3 9,6 2,3 4,6 6,9 1,3 2,7 2,11 0,4 -1,7 -2,10 -1,4 -3,7 -5,9 -3,3 -6,5 -9,6 -3,2 -6,3 -10,3l0 -9c3,0 5,-1 7,-2 2,-1 4,-2 5,-4 2,-2 3,-4 4,-6 1,-2 1,-5 1,-7 0,-3 0,-5 -1,-8 -1,-2 -3,-4 -5,-6 -1,-1 -3,-3 -6,-4 -2,-1 -5,-1 -7,-1l-9 0 0 38 -9 0 0 -47 18 0z"/>
 </g>
</svg>
